<?xml version="1.0" encoding="utf-8"?>
<!-- Generator: Adobe Illustrator 18.0.0, SVG Export Plug-In . SVG Version: 6.00 Build 0)  -->
<!DOCTYPE svg PUBLIC "-//W3C//DTD SVG 1.1//EN" "http://www.w3.org/Graphics/SVG/1.1/DTD/svg11.dtd">
<svg version="1.1" id="图层_3" xmlns="http://www.w3.org/2000/svg" xmlns:xlink="http://www.w3.org/1999/xlink" x="0px" y="0px"
	 viewBox="0 0 200 200" enable-background="new 0 0 200 200" xml:space="preserve">
<path fill="#656D78" d="M162,119.1c-0.3-1.3-1.4-2.1-2.7-2.1h-7.6l8.9-4.6c1.2-0.6,1.8-1.9,1.4-3.2c-0.3-1.3-1.4-2.1-2.7-2.1h-14.4
	l5.6-6.2c0,0,0,0,0,0c0.2-0.2,0.3-0.4,0.4-0.6c0,0,0,0,0,0c0.1-0.2,0.2-0.5,0.2-0.7c0,0,0,0,0-0.1c0-0.1,0-0.2,0-0.4c0,0,0,0,0,0
	c0-0.1,0-0.2,0-0.4c0,0,0-0.1,0-0.1c0-0.1,0-0.2-0.1-0.3c0,0,0,0,0,0c0-0.1-0.1-0.2-0.1-0.3c0,0,0,0,0,0c0,0,0,0,0,0
	c0-0.1-0.1-0.2-0.1-0.3c0,0,0,0,0-0.1c-0.1-0.1-0.1-0.2-0.2-0.3c0,0-0.1-0.1-0.1-0.1c0,0,0,0-0.1-0.1l-25.4-26l25.5-28.6
	c0.7-0.8,0.9-2,0.5-3c-0.5-1-1.5-1.7-2.6-1.7H68c-0.8,0-1.6,0.3-2.1,0.9L38.6,69.2c0,0,0,0,0,0c-0.1,0.1-0.2,0.2-0.2,0.3
	c0,0,0,0,0,0c-0.1,0.1-0.1,0.2-0.2,0.3c0,0,0,0,0,0.1c-0.1,0.2-0.2,0.5-0.2,0.7c0,0,0,0.1,0,0.1c0,0.1,0,0.2,0,0.3c0,0,0,0,0,0
	c0,0.1,0,0.2,0,0.4c0,0,0,0.1,0,0.1c0,0.1,0,0.2,0.1,0.3c0,0,0,0,0,0c0,0.1,0.1,0.2,0.1,0.4c0,0,0,0,0,0c0,0,0,0,0,0
	c0.1,0.1,0.1,0.2,0.2,0.3c0,0,0,0,0,0c0.1,0.1,0.1,0.2,0.2,0.3c0,0,0,0,0.1,0.1c0,0,0.1,0.1,0.1,0.1l25.4,26l-25.5,28.6c0,0,0,0,0,0
	c-0.1,0.1-0.2,0.2-0.2,0.3c0,0,0,0,0,0c-0.1,0.1-0.1,0.2-0.2,0.3c0,0,0,0,0,0.1c-0.1,0.1-0.1,0.2-0.1,0.3c0,0,0,0,0,0
	c0,0.1-0.1,0.2-0.1,0.3c0,0,0,0.1,0,0.1c0,0.1,0,0.2,0,0.3c0,0,0,0,0,0.1c0,0,0,0,0,0c0,0.1,0,0.2,0,0.3c0,0,0,0.1,0,0.1
	c0,0.1,0,0.2,0.1,0.3c0,0,0,0,0,0.1c0,0.1,0.1,0.2,0.1,0.4c0,0,0,0,0,0c0,0,0,0,0,0c0,0.1,0.1,0.2,0.2,0.3c0,0,0,0,0,0.1
	c0.1,0.1,0.1,0.2,0.2,0.3c0,0,0,0,0.1,0.1c0.1,0.1,0.1,0.1,0.2,0.2c0,0,0,0,0.1,0.1c0.1,0.1,0.2,0.1,0.3,0.2c0,0,0,0,0,0
	c0.1,0.1,0.2,0.1,0.3,0.2c0,0,0,0,0.1,0c0.1,0.1,0.2,0.1,0.3,0.1c0,0,0,0,0,0c0.1,0,0.2,0.1,0.3,0.1c0,0,0.1,0,0.1,0
	c0.1,0,0.2,0,0.4,0h80.3c0.1,0,0.2,0,0.3,0c0,0,0.1,0,0.1,0c0.1,0,0.1,0,0.2,0c0,0,0.1,0,0.1,0c0.1,0,0.1,0,0.2-0.1c0,0,0.1,0,0.1,0
	c0.1,0,0.1-0.1,0.2-0.1c0,0,0,0,0.1,0l18.4-9.5h6.9l-27.3,14H40.7c-1.6,0-2.8,1.3-2.8,2.8c0,1.6,1.3,2.8,2.8,2.8h80.3
	c0.4,0,0.9-0.1,1.3-0.3l18.4-9.5h6.9l-27.3,14H40.7c-1.6,0-2.8,1.3-2.8,2.8c0,1.6,1.3,2.8,2.8,2.8h80.3c0.4,0,0.9-0.1,1.3-0.3
	l18.4-9.5h6.9l-27.3,14H40.7c-1.6,0-2.8,1.3-2.8,2.8c0,1.6,1.3,2.8,2.8,2.8h80.3c0.4,0,0.9-0.1,1.3-0.3l38.2-19.6
	c1.2-0.6,1.8-1.9,1.4-3.2c-0.3-1.3-1.4-2.1-2.7-2.1h-7.6l8.9-4.6c1.2-0.6,1.8-1.9,1.4-3.2c-0.3-1.3-1.4-2.1-2.7-2.1h-7.6l8.9-4.6
	C161.7,121.6,162.3,120.3,162,119.1z M147.7,112.7l-14.4,7.4l6.6-7.4H147.7z M47,126.7l22.3-24.9h38.2c1.6,0,2.8-1.3,2.8-2.8
	c0-1.6-1.3-2.8-2.8-2.8H69.2L47.4,73.9h10.3c1.6,0,2.8-1.3,2.8-2.8c0-1.6-1.3-2.8-2.8-2.8H47l22.3-24.9h72.8l-22.3,24.9H69
	c-1.6,0-2.8,1.3-2.8,2.8c0,1.6,1.3,2.8,2.8,2.8h50.9l21.8,22.2h-23c-1.6,0-2.8,1.3-2.8,2.8c0,1.6,1.3,2.8,2.8,2.8h23.4l-22.3,24.9
	L47,126.7L47,126.7z"/>
</svg>
