<?xml version="1.0" encoding="utf-8"?>
<!-- Generator: Adobe Illustrator 18.0.0, SVG Export Plug-In . SVG Version: 6.00 Build 0)  -->
<!DOCTYPE svg PUBLIC "-//W3C//DTD SVG 1.1//EN" "http://www.w3.org/Graphics/SVG/1.1/DTD/svg11.dtd">
<svg version="1.1" id="图层_3" xmlns="http://www.w3.org/2000/svg" xmlns:xlink="http://www.w3.org/1999/xlink" x="0px" y="0px"
	 viewBox="0 0 200 200" enable-background="new 0 0 200 200" xml:space="preserve">
<path fill="#656D78" d="M164.5,64.3c0-0.1,0-0.2,0-0.3c0,0,0-0.1,0-0.1c0-0.1,0-0.3-0.1-0.4c0,0,0,0,0,0c0-0.1-0.1-0.2-0.1-0.3
	c0,0,0-0.1,0-0.1c0-0.1-0.1-0.2-0.1-0.3c0,0,0,0,0-0.1c-0.1-0.1-0.1-0.2-0.2-0.3c0,0,0,0,0,0c-0.1-0.1-0.2-0.2-0.2-0.3
	c0,0,0,0-0.1-0.1c-0.1-0.1-0.2-0.1-0.2-0.2c0,0-0.1,0-0.1-0.1c-0.1-0.1-0.2-0.2-0.3-0.2l-61.2-35.7c-1.1-0.6-2.3-0.6-3.4,0
	L37.1,61.4c-0.1,0.1-0.2,0.1-0.3,0.2c0,0-0.1,0-0.1,0.1c-0.1,0.1-0.2,0.1-0.2,0.2c0,0,0,0-0.1,0.1c-0.1,0.1-0.2,0.2-0.2,0.3
	c0,0,0,0,0,0c-0.1,0.1-0.2,0.2-0.2,0.3c0,0,0,0,0,0.1c-0.1,0.1-0.1,0.2-0.1,0.3c0,0,0,0.1,0,0.1c0,0.1-0.1,0.2-0.1,0.3c0,0,0,0,0,0
	c0,0.1-0.1,0.3-0.1,0.4c0,0,0,0.1,0,0.1c0,0.1,0,0.2,0,0.3c0,0,0,0,0,0.1v71.3c0,1.2,0.6,2.3,1.7,2.9l61.2,35.7c0,0,0,0,0,0
	c0.1,0.1,0.2,0.1,0.4,0.2c0,0,0,0,0,0c0.1,0.1,0.2,0.1,0.4,0.1c0,0,0.1,0,0.1,0c0.1,0,0.2,0,0.3,0.1c0,0,0.1,0,0.1,0
	c0.1,0,0.3,0,0.4,0c0.1,0,0.3,0,0.4,0c0,0,0.1,0,0.1,0c0.1,0,0.2,0,0.3-0.1c0,0,0.1,0,0.1,0c0.1,0,0.3-0.1,0.4-0.1c0,0,0,0,0,0
	c0.1-0.1,0.3-0.1,0.4-0.2c0,0,0,0,0,0l61.2-35.7c1-0.6,1.7-1.7,1.7-2.9L164.5,64.3C164.5,64.3,164.5,64.3,164.5,64.3z M100,96.1
	L76.1,82.2l54.4-31.7l23.9,13.9L100,96.1z M100,32.6l23.9,13.9L69.4,78.3L45.6,64.3L100,32.6z M157.8,133.7l-54.4,31.7v-13.7
	c0-1.9-1.5-3.4-3.4-3.4s-3.4,1.5-3.4,3.4v13.7l-54.4-31.7V70.2l25.5,14.9c0,0,0,0,0,0l28.9,16.8v36.3c0,1.9,1.5,3.4,3.4,3.4
	s3.4-1.5,3.4-3.4v-36.3l54.4-31.7V133.7L157.8,133.7z"/>
</svg>
