<?xml version="1.0" encoding="utf-8"?>
<!-- Generator: Adobe Illustrator 18.0.0, SVG Export Plug-In . SVG Version: 6.00 Build 0)  -->
<!DOCTYPE svg PUBLIC "-//W3C//DTD SVG 1.1//EN" "http://www.w3.org/Graphics/SVG/1.1/DTD/svg11.dtd">
<svg version="1.1" id="图层_3" xmlns="http://www.w3.org/2000/svg" xmlns:xlink="http://www.w3.org/1999/xlink" x="0px" y="0px"
	 viewBox="0 0 200 200" enable-background="new 0 0 200 200" xml:space="preserve">
<path fill-rule="evenodd" clip-rule="evenodd" fill="#656D78" d="M139.6,73.2c8.5,9.4,13.7,21.9,13.7,35.6
	c0,29.5-23.9,53.4-53.4,53.4s-53.4-23.9-53.4-53.4c0-26.4,19.2-48.3,44.5-52.6V43.5h-5.9c-1.6,0-3-1.3-3-3s1.3-3,3-3h29.7
	c1.6,0,3,1.3,3,3s-1.3,3-3,3h-5.9v12.6c10.2,1.7,19.3,6.3,26.7,12.9l6.9-6.9c1.1-1.1,3-1.1,4.1,0c1.1,1.1,1.1,3,0,4.1L139.6,73.2z
	 M102.8,43.5h-5.9v12c1-0.1,2-0.1,3-0.1c1,0,2,0.1,3,0.1V43.5z M99.9,61.3c-26.2,0-47.4,21.2-47.4,47.4c0,26.2,21.2,47.4,47.4,47.4
	c26.2,0,47.4-21.2,47.4-47.4C147.3,82.6,126.1,61.3,99.9,61.3z M99.9,120.6c-6.6,0-11.9-5.3-11.9-11.9c0-2.2,0.6-4.3,1.7-6.1L74,87
	c-1.1-1.1-1.1-3,0-4.1c1.1-1.1,3-1.1,4.1,0l15.7,15.7c1.8-1.1,3.8-1.7,6.1-1.7c6.6,0,11.9,5.3,11.9,11.9S106.4,120.6,99.9,120.6z
	 M99.9,102.8c-3.3,0-5.9,2.7-5.9,5.9s2.7,5.9,5.9,5.9s5.9-2.7,5.9-5.9S103.2,102.8,99.9,102.8z"/>
</svg>
