<?xml version="1.0" encoding="utf-8"?>
<!-- Generator: Adobe Illustrator 18.0.0, SVG Export Plug-In . SVG Version: 6.00 Build 0)  -->
<!DOCTYPE svg PUBLIC "-//W3C//DTD SVG 1.1//EN" "http://www.w3.org/Graphics/SVG/1.1/DTD/svg11.dtd">
<svg version="1.1" id="图层_3" xmlns="http://www.w3.org/2000/svg" xmlns:xlink="http://www.w3.org/1999/xlink" x="0px" y="0px"
	 viewBox="0 0 200 200" enable-background="new 0 0 200 200" xml:space="preserve">
<g>
	<g>
		<g>
			<g>
				<g>
					<path fill="#656D78" d="M107.4,166.3H93.2c-2.1,0-2.9,0-10.2-18.1l-5.6-2.3c-15.4,7-17.2,7-17.8,7h-1.2l-1-0.9l-10.1-9.9
						c-1.5-1.5-2.1-2.1,5.8-19.9l-2.3-5.4c-18.5-6.6-18.5-7.4-18.5-9.6v-14c0-2.2,0-2.9,18.5-10l2.3-5.4
						c-8.3-17.6-7.8-18.1-6.1-19.7l10.8-10.6l1.3,0c1.6,0,7.7,2.2,18.1,6.6l5.6-2.3c6.8-18.1,7.6-18.1,9.7-18.1h14.2
						c2.1,0,2.9,0,10.2,18.1l5.6,2.3c15.3-7,17.2-7,17.8-7h1.2l1,0.8l10.1,9.9c1.5,1.5,2.1,2.1-5.8,19.9l2.3,5.5
						c18.6,6.6,18.6,7.4,18.6,9.6v13.9c0,2.1,0,2.9-18.5,10l-2.3,5.5c8.3,17.5,7.8,18,6.2,19.6l-10.9,10.7l-1.4,0
						c-1.6,0-7.7-2.2-18-6.6l-5.7,2.3C110.4,166.3,109.6,166.3,107.4,166.3z M94.7,160.6h11.2c1.3-2.6,4.1-9.6,6.3-15.6l0.4-1.2
						l10.2-4.1l1.1,0.5c6.1,2.6,13.3,5.5,16.1,6.4l7.9-7.7c-1-2.8-4-9.6-6.8-15.3l-0.6-1.2l4.2-10.1l1.2-0.4
						c6.2-2.4,13.3-5.3,15.9-6.6V94.3c-2.7-1.3-9.8-4-15.9-6.1l-1.2-0.4l-4.3-10.1l0.5-1.1c2.6-5.9,5.5-12.9,6.5-15.7l-7.9-7.7
						c-2.6,0.9-9.7,4-15.7,6.7l-1.1,0.5l-10.2-4.1l-0.5-1.1c-2.4-6-5.4-13-6.8-15.6H94.1C92.8,42.1,90,49,87.8,55l-0.4,1.2
						l-10.2,4.1l-1.1-0.5c-6.1-2.6-13.3-5.5-16.1-6.3l-7.9,7.7c1,2.8,4,9.6,6.8,15.3l0.6,1.2l-4.2,10.1L54,88.2
						c-6.1,2.4-13.3,5.3-15.9,6.6v10.9c2.7,1.3,9.8,4,15.9,6.2l1.2,0.4l4.3,10.1l-0.5,1.1c-2.6,5.9-5.5,12.9-6.5,15.7l7.9,7.8
						c2.5-0.9,9.7-4,15.7-6.7l1.1-0.5l10.2,4.1l0.5,1.1C90.3,151,93.3,158,94.7,160.6z M100,123.2c-13,0-23.7-10.4-23.7-23.2
						c0-12.8,10.6-23.2,23.7-23.2c13,0,23.6,10.4,23.6,23.2C123.6,112.8,113,123.2,100,123.2z M100,82.6c-9.9,0-17.9,7.8-17.9,17.4
						c0,9.6,8,17.5,17.9,17.5c9.9,0,17.9-7.8,17.9-17.5C117.9,90.4,109.9,82.6,100,82.6z"/>
				</g>
			</g>
		</g>
	</g>
</g>
</svg>
