<?xml version="1.0" encoding="utf-8"?>
<!-- Generator: Adobe Illustrator 18.0.0, SVG Export Plug-In . SVG Version: 6.00 Build 0)  -->
<!DOCTYPE svg PUBLIC "-//W3C//DTD SVG 1.1//EN" "http://www.w3.org/Graphics/SVG/1.1/DTD/svg11.dtd">
<svg version="1.1" id="图层_3" xmlns="http://www.w3.org/2000/svg" xmlns:xlink="http://www.w3.org/1999/xlink" x="0px" y="0px"
	 viewBox="0 0 200 200" enable-background="new 0 0 200 200" xml:space="preserve">
<path fill-rule="evenodd" clip-rule="evenodd" fill="#656D78" d="M131,94.4H69c-15.5,0-28.1-12.6-28.1-28.1
	c0-15.5,12.6-28.1,28.1-28.1H131c15.5,0,28.1,12.6,28.1,28.1C159.1,81.8,146.5,94.4,131,94.4z M131,43.7H69
	c-12.4,0-22.5,10.1-22.5,22.5S56.6,88.7,69,88.7H131c12.4,0,22.5-10.1,22.5-22.5S143.4,43.7,131,43.7z M69,83.1
	c-9.3,0-16.9-7.6-16.9-16.9c0-9.3,7.6-16.9,16.9-16.9c9.3,0,16.9,7.6,16.9,16.9C85.9,75.6,78.4,83.1,69,83.1z M69,55
	c-6.2,0-11.3,5-11.3,11.3c0,6.2,5,11.3,11.3,11.3c6.2,0,11.3-5,11.3-11.3C80.3,60,75.3,55,69,55z M69,105.6H131
	c15.5,0,28.1,12.6,28.1,28.1c0,15.5-12.6,28.1-28.1,28.1H69c-15.5,0-28.1-12.6-28.1-28.1C40.9,118.2,53.5,105.6,69,105.6z M69,156.3
	H131c12.4,0,22.5-10.1,22.5-22.5s-10.1-22.5-22.5-22.5H69c-12.4,0-22.5,10.1-22.5,22.5S56.6,156.3,69,156.3z M131,116.9
	c9.3,0,16.9,7.6,16.9,16.9c0,9.3-7.6,16.9-16.9,16.9c-9.3,0-16.9-7.6-16.9-16.9C114.1,124.4,121.6,116.9,131,116.9z M131,145
	c6.2,0,11.3-5,11.3-11.3c0-6.2-5-11.3-11.3-11.3c-6.2,0-11.3,5-11.3,11.3C119.7,140,124.7,145,131,145z"/>
</svg>
