<?xml version="1.0" encoding="utf-8"?>
<!-- Generator: Adobe Illustrator 18.0.0, SVG Export Plug-In . SVG Version: 6.00 Build 0)  -->
<!DOCTYPE svg PUBLIC "-//W3C//DTD SVG 1.1//EN" "http://www.w3.org/Graphics/SVG/1.1/DTD/svg11.dtd">
<svg version="1.1" id="图层_3" xmlns="http://www.w3.org/2000/svg" xmlns:xlink="http://www.w3.org/1999/xlink" x="0px" y="0px"
	 viewBox="0 0 200 200" enable-background="new 0 0 200 200" xml:space="preserve">
<path fill="#656D78" d="M137,120.8c-7.1,0-13.5,3.4-17.5,8.6l-36-20.9c2.2-5.5,2.2-11.5,0-17l36-20.9c4,5.2,10.4,8.6,17.5,8.6
	c12.3,0,22.2-9.9,22.2-22.2s-9.9-22.2-22.2-22.2s-22.2,9.9-22.2,22.2c0,3,0.6,5.9,1.6,8.4l-36,21c-4.1-5.2-10.4-8.6-17.5-8.6
	c-12.3,0-22.2,9.9-22.2,22.2s9.9,22.2,22.2,22.2c7.1,0,13.5-3.4,17.5-8.6l36,20.9c-1,2.5-1.6,5.5-1.6,8.4c0,12.3,9.9,22.2,22.2,22.2
	s22.2-9.9,22.2-22.2S149.3,120.8,137,120.8z M137,40.9c9,0,16.3,7.2,16.3,16.3c0,9-7.3,16.3-16.3,16.3c-9,0-16.3-7.2-16.3-16.3
	C120.7,48.1,128,40.9,137,40.9z M63,116.3c-9,0-16.3-7.2-16.3-16.3c0-9,7.3-16.3,16.3-16.3c9,0,16.3,7.2,16.3,16.3
	C79.3,109.1,72,116.3,63,116.3z M137,159.3c-9,0-16.3-7.2-16.3-16.3s7.3-16.3,16.3-16.3c9,0,16.3,7.2,16.3,16.3S146,159.3,137,159.3
	z"/>
</svg>
