<?xml version="1.0" encoding="utf-8"?>
<!-- Generator: Adobe Illustrator 18.0.0, SVG Export Plug-In . SVG Version: 6.00 Build 0)  -->
<!DOCTYPE svg PUBLIC "-//W3C//DTD SVG 1.1//EN" "http://www.w3.org/Graphics/SVG/1.1/DTD/svg11.dtd">
<svg version="1.1" id="图层_3" xmlns="http://www.w3.org/2000/svg" xmlns:xlink="http://www.w3.org/1999/xlink" x="0px" y="0px"
	 viewBox="0 0 200 200" enable-background="new 0 0 200 200" xml:space="preserve">
<path fill-rule="evenodd" clip-rule="evenodd" fill="#656D78" d="M135.3,108.1c-5.1,5.4-10.2,9.7-15,13.3v14.4
	c0,6.5-2.4,12.6-6.9,17.2l-9.1,9.4c-0.5,0.5-1.1,0.8-1.8,0.8c-0.2,0-0.4,0-0.7-0.1c-0.9-0.2-1.6-0.9-1.8-1.9L93.2,135
	c-4.5,1.2-8.3,1.6-11.2,1.6c-3.3,0-5.8-0.9-7.5-2.5l-7.2-7.5c-1.6-1.7-2.4-4.3-2.4-7.8c0-3,0.4-7,1.6-11.7l-25.4-7.2
	c-0.9-0.2-1.5-1-1.8-1.9c-0.2-0.9,0-1.9,0.7-2.5l9.1-9.4c4.4-4.6,10.3-7.1,16.5-7.1h14c3.4-5,7.6-10.2,12.7-15.6
	c18.6-19.4,45.8-26.6,58.5-26.6c3,0,5.1,0.4,6.7,1.3c0.9,0.5,1.6,1.2,2.1,2.2C163.3,47.3,158.7,83.7,135.3,108.1z M103.8,155.5
	l6-6.2c3.5-3.6,5.4-8.4,5.4-13.5v-10.7l-1.3,0.6c-5.7,3.6-11,6.1-15.8,7.7L103.8,155.5z M65.6,84.2c-4.9,0-9.5,2-13,5.6l-6,6.2
	l21.3,6c1.5-4.7,3.8-9.9,6.9-15.5l1-2.4H65.6z M95.9,67.1C88.4,74.9,83.1,82.3,79.3,89l-7.2,16.9c-1.9,6.6-2.1,11.2-2.1,12.9
	c0,1.9,0.3,3.4,0.9,4l7.2,7.5c0.6,0.6,2,1,3.9,1c1.6,0,5.8-0.2,11.8-2c0.1,0,0.1-0.1,0.2-0.1l17.5-8.1c6.2-3.9,13.1-9.3,20.3-16.8
	c10.5-11,16.9-24.4,20.4-36.1c-9.9-4-17.7-12.1-21.6-22.4C119.1,49.7,106.2,56.4,95.9,67.1z M155.2,42.7c-0.4-0.2-1.5-0.6-4.3-0.6
	c-3.9,0-9.3,0.8-15.4,2.4c3.4,8.5,9.9,15.3,18.1,18.8C156,53,156.2,45,155.2,42.7z M120.3,89.5c-5.6,0-10.1-4.7-10.1-10.5
	c0-5.8,4.5-10.5,10.1-10.5c5.6,0,10.1,4.7,10.1,10.5C130.4,84.7,125.8,89.5,120.3,89.5z M120.3,73.7c-2.8,0-5.1,2.4-5.1,5.3
	c0,2.9,2.3,5.3,5.1,5.3c2.8,0,5.1-2.4,5.1-5.3C125.3,76,123,73.7,120.3,73.7z M50.2,138.1c1.4-3.8,5.1-6.5,9.3-6.5
	c5.6,0,10.1,4.7,10.1,10.5c0,4.4-2.5,8.2-6.4,9.8c-5.2,2.8-15.2,5.8-15.7,5.9c-0.2,0.1-0.5,0.1-0.7,0.1c-0.7,0-1.3-0.3-1.8-0.8
	c-0.7-0.7-0.9-1.7-0.6-2.6C44.5,154.2,47.4,143.7,50.2,138.1z M61.1,147.2c2.2-0.9,3.4-2.8,3.4-5c0-2.9-2.3-5.3-5.1-5.3
	c-2.1,0-3.9,1.3-4.7,3.4c-1.5,3.1-3,7.6-4.1,11.1C54,150.2,58.3,148.6,61.1,147.2z"/>
</svg>
