<?xml version="1.0" encoding="utf-8"?>
<!-- Generator: Adobe Illustrator 18.0.0, SVG Export Plug-In . SVG Version: 6.00 Build 0)  -->
<!DOCTYPE svg PUBLIC "-//W3C//DTD SVG 1.1//EN" "http://www.w3.org/Graphics/SVG/1.1/DTD/svg11.dtd">
<svg version="1.1" id="图层_3" xmlns="http://www.w3.org/2000/svg" xmlns:xlink="http://www.w3.org/1999/xlink" x="0px" y="0px"
	 viewBox="0 0 200 200" enable-background="new 0 0 200 200" xml:space="preserve">
<g>
	<g>
		<path fill="#656D78" d="M166.1,144.4c0.2-6.1-6.9-11-23.6-16.6c-10.6-3.5-21.1-5.9-21.6-6c-2.1-0.5-4.2,0.9-4.7,3
			c-0.5,2.1,0.9,4.2,3,4.7c19.4,4.3,37.5,11.3,39,14.9v5.2H62.9l0-5.2c1.5-3.6,19.7-10.5,39-14.9c1.8-0.4,3.1-2,3.1-3.8v-7
			c1.1,0.1,2.1,0.2,3.2,0.2h4.7c13.6,0,24.7-11.1,24.7-24.7V67.3c0-13.6-11.1-24.7-24.7-24.7h-4.7c-13.6,0-24.7,11.1-24.7,24.7v26.8
			c0,9.6,5.6,18,13.6,22v6.3c-4,1-11.2,2.8-18.5,5.3c-16.8,5.6-23.8,10.6-23.6,16.5v9.2c0,2.2,1.8,3.9,3.9,3.9h103.2
			c0.3,0,0.5,0,0.8-0.1c1.8-0.4,3.1-1.9,3.1-3.8v0c0,0,0,0,0,0L166.1,144.4z M91.4,94.1V67.3c0-9.3,7.6-16.8,16.8-16.8h4.7
			c9.3,0,16.8,7.6,16.8,16.8v26.8c0,9.3-7.6,16.8-16.8,16.8h-4.7C98.9,111,91.4,103.4,91.4,94.1z M71.7,124.7
			c1.5-0.3,2.6-1.7,2.6-3.3v-5.3c0.8,0.1,1.6,0.2,2.4,0.2h3.8c1.9,0,3.4-1.5,3.4-3.4c0-1.9-1.5-3.4-3.4-3.4h-3.8
			c-7.3,0-13.3-5.9-13.3-13.3V74.9c0-7.3,5.9-13.3,13.3-13.3h3.8c1.9,0,3.4-1.5,3.4-3.4c0-1.9-1.5-3.4-3.4-3.4h-3.8
			c-11,0-20,9-20,20v21.4c0,7.7,4.4,14.5,10.9,17.8v4.7c-16.1,3.8-34,9.8-33.7,17.6v17.2c0,1.9,1.5,3.4,3.4,3.4
			c1.9,0,3.4-1.5,3.4-3.4l0-17.1C42.1,133.6,56.5,128.2,71.7,124.7z"/>
	</g>
</g>
</svg>
