<?xml version="1.0" encoding="utf-8"?>
<!-- Generator: Adobe Illustrator 18.0.0, SVG Export Plug-In . SVG Version: 6.00 Build 0)  -->
<!DOCTYPE svg PUBLIC "-//W3C//DTD SVG 1.1//EN" "http://www.w3.org/Graphics/SVG/1.1/DTD/svg11.dtd">
<svg version="1.1" id="图层_3" xmlns="http://www.w3.org/2000/svg" xmlns:xlink="http://www.w3.org/1999/xlink" x="0px" y="0px"
	 viewBox="0 0 200 200" enable-background="new 0 0 200 200" xml:space="preserve">
<path fill-rule="evenodd" clip-rule="evenodd" fill="#656D78" d="M100,166.3c-36.6,0-66.3-29.7-66.3-66.3
	c0-36.6,29.7-66.3,66.3-66.3s66.3,29.7,66.3,66.3C166.3,136.6,136.6,166.3,100,166.3z M100,40c-33.1,0-60,26.8-60,60s26.8,60,60,60
	s60-26.8,60-60S133.1,40,100,40z M150.5,103.2h-3.2c-1.7,0-3.2-1.4-3.2-3.2c0-1.7,1.4-3.2,3.2-3.2h3.2c1.7,0,3.2,1.4,3.2,3.2
	C153.7,101.7,152.2,103.2,150.5,103.2z M131.5,129.1c-0.1,0.6-0.4,1.2-0.8,1.6c-1,1-2.4,1.1-3.6,0.5l0.2,0.2l0,0c0,0,0,0,0,0l0,0
	c-0.5-0.2-1-0.4-1.5-0.6c-16.4-6.8-25.9-12.2-31.1-15.6c-4.1-2.7-5.6-4.2-5.7-4.3c-0.1-0.1-7.9-7.6-20.5-38.3l0,0c0,0,0,0,0,0
	l0.2,0.2c0-0.1,0-0.1-0.1-0.2c-0.3-0.7-0.3-1.4-0.1-2.1c0.1-0.5,0.4-0.9,0.7-1.3c0.9-0.9,2.3-1.1,3.5-0.6c0,0,0.1,0,0.1,0l-0.1-0.1
	l-0.1-0.1c0,0,0,0,0,0l0,0C103.3,81.2,110.8,88.9,111,89c0.1,0.1,7.9,7.6,20.5,38.3l0,0c0,0,0,0,0,0l-0.1-0.1l-0.1-0.1
	c0.1,0.1,0.1,0.3,0.2,0.5C131.5,128.1,131.6,128.6,131.5,129.1z M106.5,93.5c-0.1-0.1-6.4-6.1-29-16c9.9,22.6,16,28.9,16.1,29.1
	c0.1,0.1,6.4,6.1,29,16C112.6,99.9,106.6,93.6,106.5,93.5z M100,96.8c1.7,0,3.2,1.4,3.2,3.2c0,1.7-1.4,3.2-3.2,3.2s-3.2-1.4-3.2-3.2
	C96.8,98.3,98.3,96.8,100,96.8z M100,55.8c-1.7,0-3.2-1.4-3.2-3.2v-3.2c0-1.7,1.4-3.2,3.2-3.2s3.2,1.4,3.2,3.2v3.2
	C103.2,54.4,101.7,55.8,100,55.8z M100,144.2c1.7,0,3.2,1.4,3.2,3.2v3.2c0,1.7-1.4,3.2-3.2,3.2s-3.2-1.4-3.2-3.2v-3.2
	C96.8,145.6,98.3,144.2,100,144.2z M52.7,103.2h-3.2c-1.7,0-3.2-1.4-3.2-3.2c0-1.7,1.4-3.2,3.2-3.2h3.2c1.7,0,3.2,1.4,3.2,3.2
	C55.8,101.7,54.4,103.2,52.7,103.2z"/>
</svg>
