<?xml version="1.0" encoding="utf-8"?>
<!-- Generator: Adobe Illustrator 18.0.0, SVG Export Plug-In . SVG Version: 6.00 Build 0)  -->
<!DOCTYPE svg PUBLIC "-//W3C//DTD SVG 1.1//EN" "http://www.w3.org/Graphics/SVG/1.1/DTD/svg11.dtd">
<svg version="1.1" id="图层_3" xmlns="http://www.w3.org/2000/svg" xmlns:xlink="http://www.w3.org/1999/xlink" x="0px" y="0px"
	 viewBox="0 0 200 200" enable-background="new 0 0 200 200" xml:space="preserve">
<g>
	<g>
		<path fill="#656D78" d="M142.8,32.4H41.1v121.4h101.7V32.4z M136.7,147.7c-5.5,0-83.9,0-89.5,0c0-5.6,0-103.5,0-109.1
			c5.6,0,83.9,0,89.5,0C136.7,44.2,136.7,142,136.7,147.7z"/>
		<rect x="57.9" y="52.1" fill="#656D78" width="69.5" height="6.4"/>
		<rect x="57.9" y="72.4" fill="#656D78" width="69.5" height="6.4"/>
		<polygon fill="#656D78" points="147,46.2 147,52.3 152.8,52.3 152.8,161.4 63.3,161.4 63.3,157.2 57.2,157.2 57.2,167.6 
			158.9,167.6 158.9,46.2 		"/>
		<path fill="#656D78" d="M60.5,119.9c1.2,0,2.3-0.3,3.3-0.8l8.7,7.1c0,0.3-0.2,0.6-0.2,1c0,4.2,3.4,7.6,7.6,7.6s7.6-3.4,7.6-7.6
			c0-1.2-0.3-2.3-0.8-3.3c4.2-6.3,9.5-14.3,12.8-19.1c0.5,0.1,1,0.3,1.5,0.3c1.8,0,3.4-0.7,4.8-1.8c2.9,1.7,6.6,3.8,9.8,5.7
			c0,0.1-0.1,0.2-0.1,0.3c0,4.2,3.4,7.6,7.6,7.6c4.2,0,7.6-3.4,7.6-7.6s-3.4-7.6-7.6-7.6c-1.9,0-3.5,0.7-4.8,1.9l-9.8-5.7
			c0-0.1,0.1-0.2,0.1-0.4c0-4.2-3.4-7.6-7.6-7.6c-4.2,0-7.6,3.4-7.6,7.6c0,1.4,0.5,2.7,1.2,3.8c-4,6-9.2,13.9-12.5,18.8
			c-0.7-0.2-1.3-0.4-2-0.4c-1.6,0-3,0.6-4.2,1.4c-2.4-2-5.4-4.4-8.1-6.6c0.2-0.7,0.4-1.3,0.4-2.1c0-4.2-3.4-7.6-7.6-7.6
			c-4.2,0-7.6,3.4-7.6,7.6C52.9,116.5,56.3,119.9,60.5,119.9z"/>
	</g>
</g>
</svg>
