<?xml version="1.0" encoding="utf-8"?>
<!-- Generator: Adobe Illustrator 18.0.0, SVG Export Plug-In . SVG Version: 6.00 Build 0)  -->
<!DOCTYPE svg PUBLIC "-//W3C//DTD SVG 1.1//EN" "http://www.w3.org/Graphics/SVG/1.1/DTD/svg11.dtd">
<svg version="1.1" id="图层_3" xmlns="http://www.w3.org/2000/svg" xmlns:xlink="http://www.w3.org/1999/xlink" x="0px" y="0px"
	 viewBox="0 0 200 200" enable-background="new 0 0 200 200" xml:space="preserve">
<path fill-rule="evenodd" clip-rule="evenodd" fill="#656D78" d="M154.6,131.6h-39.7c1.7,9.5,7.4,16,12.6,20.1h6.9
	c1.6,0,2.9,1.3,2.9,2.9c0,1.6-1.3,2.9-2.9,2.9h-69c-1.6,0-2.9-1.3-2.9-2.9c0-1.6,1.3-2.9,2.9-2.9h6.9c5.3-4.1,10.9-10.6,12.6-20.1
	H45.4c-6.3,0-11.5-5.1-11.5-11.5V54c0-6.3,5.1-11.5,11.5-11.5h109.2c6.3,0,11.5,5.1,11.5,11.5v66.1
	C166.1,126.5,161,131.6,154.6,131.6z M81,151.7h38c-4.6-4.8-8.7-11.4-9.9-20.1H91C89.7,140.3,85.6,146.9,81,151.7z M160.4,54
	c0-3.2-2.6-5.7-5.7-5.7H45.4c-3.2,0-5.7,2.6-5.7,5.7v54.6c0,0,0,0,0,0h120.7V54z M160.4,114.4H39.6c0,0,0,0,0,0v5.7
	c0,3.2,2.6,5.7,5.7,5.7h40.2l0,0h28.7l0,0h40.2c3.2,0,5.7-2.6,5.7-5.7V114.4z M100,123c-1.6,0-2.9-1.3-2.9-2.9
	c0-1.6,1.3-2.9,2.9-2.9s2.9,1.3,2.9,2.9C102.9,121.7,101.6,123,100,123z"/>
</svg>
