<?xml version="1.0" encoding="utf-8"?>
<!-- Generator: Adobe Illustrator 18.0.0, SVG Export Plug-In . SVG Version: 6.00 Build 0)  -->
<!DOCTYPE svg PUBLIC "-//W3C//DTD SVG 1.1//EN" "http://www.w3.org/Graphics/SVG/1.1/DTD/svg11.dtd">
<svg version="1.1" id="图层_3" xmlns="http://www.w3.org/2000/svg" xmlns:xlink="http://www.w3.org/1999/xlink" x="0px" y="0px"
	 viewBox="0 0 200 200" enable-background="new 0 0 200 200" xml:space="preserve">
<path fill-rule="evenodd" clip-rule="evenodd" fill="#656D78" d="M156.2,156H52.6c-6.5,0-11.8-5.3-11.8-11.8V87.8
	c-5.1-1.3-8.9-5.9-8.9-11.4v-8.8c0,0,0,0,0,0v-0.1c0-0.5,0.1-0.9,0.3-1.3c0,0,0,0,0-0.1c0.2-0.4,0.5-0.7,0.8-0.9l20.2-20.1
	c0.5-0.7,1.3-1.2,2.3-1.2h0.1c0,0,0,0,0,0h17.7c0,0,0,0,0,0h17.7c0,0,0,0,0,0h17.7c0,0,0,0,0,0h17.7c0,0,0,0,0,0h29.5
	c6.5,0,11.8,5.3,11.8,11.8l0,0v88.3C168.1,150.7,162.8,156,156.2,156z M73.4,150.1C73.4,150.1,73.4,150.1,73.4,150.1v-26.5H61.5
	v26.5c0,0,0,0,0,0H73.4z M37.8,76.4c0,3.3,2.7,5.9,5.9,5.9s5.9-2.6,5.9-5.9v-5.9H37.8V76.4z M56.7,49.9L41.9,64.7h9.6l14.8-14.7
	H56.7z M55.6,76.4c0,3.3,2.7,5.9,5.9,5.9c3.3,0,5.9-2.6,5.9-5.9v-5.9H55.6V76.4z M74.5,49.9L59.7,64.7h9.6l14.8-14.7H74.5z
	 M73.4,76.4c0,3.3,2.7,5.9,5.9,5.9c3.3,0,5.9-2.6,5.9-5.9v-5.9H73.4V76.4z M92.2,49.9L77.4,64.7H87l14.8-14.7H92.2z M91.1,76.4
	c0,3.3,2.7,5.9,5.9,5.9c3.3,0,5.9-2.6,5.9-5.9v-5.9H91.1V76.4z M110,49.9L95.2,64.7h9.6l14.8-14.7H110z M123.7,54l-14.8,14.7v7.7
	c0,6.5-5.3,11.8-11.8,11.8c-3.6,0-6.7-1.6-8.9-4.1c-2.2,2.5-5.3,4.1-8.9,4.1c-3.6,0-6.7-1.6-8.9-4.1c-2.2,2.5-5.3,4.1-8.9,4.1
	c-3.6,0-6.7-1.6-8.9-4.1c-1.5,1.7-3.6,3-5.9,3.7v56.4c0,3.3,2.7,5.9,5.9,5.9h3c0,0,0,0,0,0v-29.4c0-1.6,1.3-2.9,3-2.9h17.8
	c1.6,0,3,1.3,3,2.9v29.4c0,0,0,0,0,0h38.5c3.3,0,5.9-2.6,5.9-5.9V54z M162.2,55.8c0-3.3-2.7-5.9-5.9-5.9h-26.6l0,94.2
	c0,2.2-0.6,4.2-1.6,5.9h28.3c3.3,0,5.9-2.6,5.9-5.9V55.8z M111.8,123.6C111.8,123.6,111.8,123.6,111.8,123.6l-23.7,0c0,0,0,0,0,0
	c-1.6,0-3-1.3-3-2.9V100c0-1.6,1.3-2.9,3-2.9h23.7c1.6,0,3,1.3,3,2.9v20.6C114.8,122.2,113.5,123.6,111.8,123.6z M108.9,102.9H91.1
	v14.7h17.8V102.9z"/>
</svg>
