<?xml version="1.0" encoding="utf-8"?>
<!-- Generator: Adobe Illustrator 18.0.0, SVG Export Plug-In . SVG Version: 6.00 Build 0)  -->
<!DOCTYPE svg PUBLIC "-//W3C//DTD SVG 1.1//EN" "http://www.w3.org/Graphics/SVG/1.1/DTD/svg11.dtd">
<svg version="1.1" id="图层_3" xmlns="http://www.w3.org/2000/svg" xmlns:xlink="http://www.w3.org/1999/xlink" x="0px" y="0px"
	 viewBox="0 0 200 200" enable-background="new 0 0 200 200" xml:space="preserve">
<g>
	<g>
		<path fill="#656D78" d="M120.7,44.3c-0.5-2.1-2.7-3.3-4.8-2.8c-2.1,0.5-3.3,2.7-2.8,4.8l28.8,109.5c0.5,1.8,2,2.9,3.8,2.9
			c0.3,0,0.7,0,1-0.1c2.1-0.5,3.3-2.7,2.8-4.8L120.7,44.3z M84.1,41.5c-2.1-0.6-4.2,0.7-4.8,2.8L50.5,153.8
			c-0.5,2.1,0.7,4.2,2.8,4.8c0.3,0.1,0.7,0.1,1,0.1c1.7,0,3.3-1.2,3.8-2.9L86.9,46.2C87.4,44.2,86.2,42,84.1,41.5z M164.2,153.7
			L135.1,44.2c-0.6-2.1-2.7-3.3-4.8-2.8c-2.1,0.6-3.3,2.7-2.8,4.8l29.1,109.5c0.5,1.7,2,2.9,3.8,2.9c0.3,0,0.7,0,1-0.1
			C163.6,158,164.8,155.8,164.2,153.7z M69.6,41.5c-2.1-0.6-4.2,0.7-4.8,2.8L35.8,153.7c-0.6,2.1,0.7,4.2,2.8,4.8
			c0.3,0.1,0.7,0.1,1,0.1c1.7,0,3.3-1.2,3.8-2.9L72.4,46.3C73,44.2,71.7,42,69.6,41.5z M100,137.9c-2.2,0-3.9,1.7-3.9,3.9V152
			c0,2.2,1.7,3.9,3.9,3.9s3.9-1.7,3.9-3.9v-10.2C103.9,139.6,102.2,137.9,100,137.9z M100,106.6c-2.2,0-3.9,1.7-3.9,3.9v10.2
			c0,2.2,1.7,3.9,3.9,3.9s3.9-1.7,3.9-3.9v-10.2C103.9,108.4,102.2,106.6,100,106.6z M100,75.4c-2.2,0-3.9,1.7-3.9,3.9v10.2
			c0,2.2,1.7,3.9,3.9,3.9s3.9-1.7,3.9-3.9V79.3C103.9,77.1,102.2,75.4,100,75.4z M100,44.1c-2.2,0-3.9,1.7-3.9,3.9v10.2
			c0,2.2,1.7,3.9,3.9,3.9s3.9-1.7,3.9-3.9V48C103.9,45.9,102.2,44.1,100,44.1z"/>
	</g>
</g>
</svg>
