<?xml version="1.0" encoding="utf-8"?>
<!-- Generator: Adobe Illustrator 18.0.0, SVG Export Plug-In . SVG Version: 6.00 Build 0)  -->
<!DOCTYPE svg PUBLIC "-//W3C//DTD SVG 1.1//EN" "http://www.w3.org/Graphics/SVG/1.1/DTD/svg11.dtd">
<svg version="1.1" id="图层_3" xmlns="http://www.w3.org/2000/svg" xmlns:xlink="http://www.w3.org/1999/xlink" x="0px" y="0px"
	 viewBox="0 0 200 200" enable-background="new 0 0 200 200" xml:space="preserve">
<g>
	<path fill="#656D78" d="M130.1,120.3c-0.2-0.2-0.5-0.5-0.9-0.8c-0.9-0.7-2.3-0.7-3.1,0.2l-3.2,3.2l-15.3-15.3l22.8-22.8
		c2.9,1.1,5.8,1.6,8.9,1.6c6.8,0,13.3-2.7,18.1-7.5c7.5-7.5,9.6-19.1,5.2-28.8c-0.3-0.7-0.9-1.2-1.7-1.3c-0.7-0.1-1.5,0.1-2.1,0.6
		l-9.3,9.3l-7.6-0.6l-0.6-7.6l9.3-9.3c0.5-0.5,0.8-1.3,0.6-2.1c-0.1-0.7-0.6-1.4-1.3-1.7c-3.3-1.5-7-2.3-10.7-2.3
		c-6.8,0-13.3,2.7-18.1,7.5c-7.2,7.2-9.4,17.6-5.9,27L92.3,92.5L66.1,66.3l1.6-1.6c0.4-0.4,0.7-1,0.7-1.6c0-0.6-0.2-1.2-0.7-1.6
		L50.3,43.9c-0.9-0.9-2.4-0.9-3.3,0l-6.6,6.6c-0.9,0.9-0.9,2.4,0,3.3l17.5,17.5c0.5,0.5,1,0.7,1.6,0.7c0.6,0,1.2-0.2,1.6-0.7
		l1.6-1.6l26.2,26.2l-19.3,19.3c-2.8-1.1-5.8-1.6-8.9-1.6c-6.8,0-13.3,2.7-18.1,7.5c-7.5,7.5-9.6,19.1-5.2,28.8
		c0.3,0.7,1,1.2,1.7,1.3c0.7,0.1,1.5-0.1,2.1-0.6l9.3-9.3l7.6,0.6l0.6,7.6l-9.3,9.3c-0.5,0.5-0.8,1.3-0.6,2.1
		c0.1,0.7,0.6,1.4,1.3,1.7c3.3,1.5,7,2.3,10.7,2.3h0c6.8,0,13.3-2.7,18.1-7.5c7.2-7.2,9.4-17.6,5.9-27l19.3-19.3l15.3,15.3l-3.2,3.2
		c-0.8,0.8-0.8,2.3-0.1,3.2c0.2,0.3,0.4,0.5,0.7,0.8l26.3,26.3c2,2,4.6,3.1,7.2,3.1c2.3,0,4.5-0.9,6-2.4l0.5-0.5
		c1.7-1.7,2.6-4.1,2.4-6.6c-0.2-2.4-1.2-4.8-3-6.6L130.1,120.3z M45.4,52.1l3.3-3.3L62.9,63l-1.6,1.6c0,0,0,0,0,0s0,0,0,0l-1.6,1.6
		L45.4,52.1z M119.5,71.9c0.7-0.7,0.9-1.7,0.5-2.6c-3.5-8-1.8-17.2,4.3-23.3c4-4,9.2-6.1,14.8-6.1c1.9,0,3.7,0.2,5.5,0.7l-7.5,7.5
		c-0.5,0.5-0.7,1.1-0.7,1.8l0.8,10.7c0.1,1.1,1,2.1,2.1,2.1l10.7,0.8c0.7,0.1,1.3-0.2,1.8-0.7l7.5-7.5c1.9,7.2-0.1,15-5.4,20.3
		c-4,4-9.2,6.1-14.8,6.1c-3,0-5.8-0.6-8.5-1.8c-0.9-0.4-1.9-0.2-2.6,0.5l-23.9,23.9l-8.6-8.6L119.5,71.9z M80.5,128.1
		c-0.7,0.7-0.9,1.7-0.5,2.6c3.5,8,1.8,17.2-4.3,23.3c-4,4-9.2,6.1-14.8,6.1c-1.9,0-3.7-0.2-5.5-0.7l7.5-7.5c0.5-0.5,0.7-1.1,0.7-1.8
		l-0.8-10.7c-0.1-1.1-1-2-2.1-2.1l-10.7-0.8c-0.7,0-1.3,0.2-1.8,0.7l-7.5,7.5c-1.9-7.2,0.1-15,5.4-20.3c4-4,9.2-6.1,14.8-6.1
		c3,0,5.8,0.6,8.5,1.8c0.9,0.4,1.9,0.2,2.6-0.5L92.3,99l8.6,8.6L80.5,128.1z M153.7,156.5l-0.5,0.5c-0.9,0.9-2,1.1-2.8,1.1
		c-1.4,0-2.8-0.6-3.9-1.7l-25.3-25.3l6.6-6.6l25.3,25.3c1,1,1.6,2.3,1.7,3.6C154.8,154.7,154.4,155.8,153.7,156.5z"/>
</g>
</svg>
