<?xml version="1.0" encoding="utf-8"?>
<!-- Generator: Adobe Illustrator 18.0.0, SVG Export Plug-In . SVG Version: 6.00 Build 0)  -->
<!DOCTYPE svg PUBLIC "-//W3C//DTD SVG 1.1//EN" "http://www.w3.org/Graphics/SVG/1.1/DTD/svg11.dtd">
<svg version="1.1" id="图层_3" xmlns="http://www.w3.org/2000/svg" xmlns:xlink="http://www.w3.org/1999/xlink" x="0px" y="0px"
	 viewBox="0 0 200 200" enable-background="new 0 0 200 200" xml:space="preserve">
<g>
	<path fill="#656D78" d="M88.1,136.3c-4.2,0-7.6,3.3-7.6,7.3c0,4,3.4,7.3,7.6,7.3c4.2,0,7.6-3.3,7.6-7.3
		C95.8,139.6,92.3,136.3,88.1,136.3z M88.1,146.5c-1.8,0-3.2-1.3-3.2-2.9c0-1.6,1.4-2.9,3.2-2.9c1.8,0,3.2,1.3,3.2,2.9
		C91.3,145.2,89.9,146.5,88.1,146.5z"/>
	<path fill="#656D78" d="M88.1,115.9c-4.2,0-7.6,3.3-7.6,7.3c0,4,3.4,7.3,7.6,7.3c4.2,0,7.6-3.3,7.6-7.3
		C95.8,119.1,92.3,115.9,88.1,115.9z M88.1,126.1c-1.8,0-3.2-1.3-3.2-2.9c0-1.6,1.4-2.9,3.2-2.9c1.8,0,3.2,1.3,3.2,2.9
		C91.3,124.8,89.9,126.1,88.1,126.1z"/>
	<path fill="#656D78" d="M67.7,115.9c-4.3,0-7.8,3.3-7.8,7.3c0,4,3.5,7.3,7.8,7.3s7.8-3.3,7.8-7.3C75.4,119.1,71.9,115.9,67.7,115.9
		z M67.7,126.1c-1.8,0-3.3-1.3-3.3-2.9c0-1.6,1.5-2.9,3.3-2.9s3.3,1.3,3.3,2.9C70.9,124.8,69.4,126.1,67.7,126.1z"/>
	<path fill="#656D78" d="M67.7,136.3c-4.3,0-7.8,3.3-7.8,7.3c0,4,3.5,7.3,7.8,7.3s7.8-3.3,7.8-7.3C75.4,139.6,71.9,136.3,67.7,136.3
		z M67.7,146.5c-1.8,0-3.3-1.3-3.3-2.9c0-1.6,1.5-2.9,3.3-2.9s3.3,1.3,3.3,2.9C70.9,145.2,69.4,146.5,67.7,146.5z"/>
	<path fill="#656D78" d="M77.8,48.7h41.4c1.2,0,2.2-1,2.2-2.2s-1-2.2-2.2-2.2H77.8c-1.2,0-2.2,1-2.2,2.2S76.6,48.7,77.8,48.7z"/>
	<path fill="#656D78" d="M128.9,54.5H67.7c-4.3,0-7.8,3.5-7.8,7.8v19.5c0,4.3,3.5,7.8,7.8,7.8h61.2c4.3,0,7.8-3.5,7.8-7.8V62.3
		C136.7,58,133.2,54.5,128.9,54.5z M132.2,81.8c0,1.8-1.5,3.3-3.3,3.3H67.7c-1.8,0-3.3-1.5-3.3-3.3V62.3c0-1.8,1.5-3.3,3.3-3.3h61.2
		c1.8,0,3.3,1.5,3.3,3.3V81.8z"/>
	<path fill="#656D78" d="M136.5,102.7c0-4-3.4-7.3-7.5-7.3c-4.2,0-7.5,3.3-7.5,7.3c0,4.1,3.4,7.3,7.5,7.3
		C133.1,110.1,136.5,106.8,136.5,102.7z M125.9,102.7c0-1.6,1.4-2.9,3.1-2.9s3.1,1.3,3.1,2.9c0,1.6-1.4,2.9-3.1,2.9
		S125.9,104.3,125.9,102.7z"/>
	<path fill="#656D78" d="M143.8,40.5l-3.3-3.5l-0.7-0.5c-3.1-1.4-8.2-2.5-11.6-2.5H68.2c-3.4,0-8.5,1.1-11.6,2.5l-3.5,3.3l-0.5,0.7
		c-1.4,3.1-2.5,8.2-2.5,11.6v91.1c0,3.4,1.1,8.5,2.5,11.6l3.3,3.5l0.7,0.5c3.1,1.4,8.2,2.5,11.6,2.5h60.1c3.4,0,8.5-1.1,11.6-2.5
		l3.5-3.3l0.5-0.7c1.4-3.1,2.5-8.2,2.5-11.6V52.1C146.3,48.7,145.2,43.6,143.8,40.5z M141.8,143.2c0,2.6-0.9,6.8-1.9,9.4l-2.2,2.2
		c-2.6,1.1-6.7,1.9-9.4,1.9H68.2c-2.6,0-6.8-0.9-9.4-1.9l-2.2-2.2c-1.1-2.6-1.9-6.8-1.9-9.4V52.1c0-2.6,0.9-6.8,1.9-9.4l2.2-2.2
		c2.6-1.1,6.8-1.9,9.4-1.9h60.1c2.6,0,6.8,0.9,9.4,1.9l2.2,2.2c1.1,2.6,1.9,6.8,1.9,9.4L141.8,143.2L141.8,143.2z"/>
	<path fill="#656D78" d="M129.1,115.9c-4.2,0-7.6,3.5-7.6,7.8v19.5c0,4.3,3.4,7.8,7.6,7.8c4.2,0,7.6-3.5,7.6-7.8v-19.5
		C136.7,119.4,133.3,115.9,129.1,115.9z M132.2,143.2c0,1.8-1.4,3.3-3.2,3.3s-3.2-1.5-3.2-3.3v-19.5c0-1.8,1.4-3.3,3.2-3.3
		s3.2,1.5,3.2,3.3V143.2z"/>
	<path fill="#656D78" d="M108.6,115.9c-4.2,0-7.5,3.3-7.5,7.3c0,4,3.4,7.3,7.5,7.3c4.2,0,7.5-3.3,7.5-7.3
		C116.1,119.1,112.8,115.9,108.6,115.9z M108.6,126.1c-1.7,0-3.1-1.3-3.1-2.9c0-1.6,1.4-2.9,3.1-2.9c1.7,0,3.1,1.3,3.1,2.9
		C111.7,124.8,110.3,126.1,108.6,126.1z"/>
	<path fill="#656D78" d="M108.6,95.4c-4.2,0-7.5,3.3-7.5,7.3c0,4.1,3.4,7.3,7.5,7.3c4.2,0,7.5-3.3,7.5-7.3
		C116.1,98.7,112.8,95.4,108.6,95.4z M108.6,105.6c-1.7,0-3.1-1.3-3.1-2.9c0-1.6,1.4-2.9,3.1-2.9c1.7,0,3.1,1.3,3.1,2.9
		S110.3,105.6,108.6,105.6z"/>
	<path fill="#656D78" d="M108.6,136.3c-4.2,0-7.5,3.3-7.5,7.3c0,4,3.4,7.3,7.5,7.3c4.2,0,7.5-3.3,7.5-7.3
		C116.1,139.6,112.8,136.3,108.6,136.3z M108.6,146.5c-1.7,0-3.1-1.3-3.1-2.9c0-1.6,1.4-2.9,3.1-2.9c1.7,0,3.1,1.3,3.1,2.9
		C111.7,145.2,110.3,146.5,108.6,146.5z"/>
	<path fill="#656D78" d="M88.1,95.4c-4.2,0-7.6,3.3-7.6,7.3c0,4.1,3.4,7.3,7.6,7.3c4.2,0,7.6-3.3,7.6-7.3
		C95.8,98.7,92.3,95.4,88.1,95.4z M88.1,105.6c-1.8,0-3.2-1.3-3.2-2.9c0-1.6,1.4-2.9,3.2-2.9c1.8,0,3.2,1.3,3.2,2.9
		C91.3,104.3,89.9,105.6,88.1,105.6z"/>
</g>
</svg>
