<?xml version="1.0" encoding="utf-8"?>
<!-- Generator: Adobe Illustrator 18.0.0, SVG Export Plug-In . SVG Version: 6.00 Build 0)  -->
<!DOCTYPE svg PUBLIC "-//W3C//DTD SVG 1.1//EN" "http://www.w3.org/Graphics/SVG/1.1/DTD/svg11.dtd">
<svg version="1.1" id="图层_3" xmlns="http://www.w3.org/2000/svg" xmlns:xlink="http://www.w3.org/1999/xlink" x="0px" y="0px"
	 viewBox="0 0 200 200" enable-background="new 0 0 200 200" xml:space="preserve">
<g>
	<g>
		<path fill="#656D78" d="M45.2,82.7c-0.5,1.4,0.1,2.9,1.5,3.5c0.3,0.1,0.7,0.2,1,0.2c1,0,2-0.6,2.5-1.7C55.7,70.3,69.2,61,84.4,61
			c1.5,0,2.6-1.2,2.6-2.7c0-1.5-1.2-2.7-2.6-2.7C67,55.6,51.6,66.3,45.2,82.7z M36.1,70.1c0.3,0.1,0.7,0.2,1,0.2c1,0,2-0.6,2.5-1.7
			c5.6-14.4,19.1-23.7,34.3-23.7c1.5,0,2.6-1.2,2.6-2.7c0-1.5-1.2-2.7-2.6-2.7c-17.4,0-32.8,10.6-39.2,27.1
			C34.1,68,34.8,69.5,36.1,70.1z M168.5,97.3c0-11.9-9-21.7-20.7-22.7c-2.8-9.5-11.5-16.3-21.5-16.3c-10.3,0-19.1,7.2-21.5,17.2
			c-2.4-0.7-4.9-1.1-7.5-1.1c-13.6,0-25.2,9.6-28.1,22.9c-2.9-0.9-5.8-1.4-8.8-1.4c-15.4,0-29,15.1-29,32.3
			c0,17.2,13.6,32.3,29,32.3h63.3c15.4,0,29-15.1,29-32.3c0-3.1-0.4-6.1-1.2-8.9C161.3,116.8,168.5,107.8,168.5,97.3z M123.7,155.1
			H60.5c-13.6,0-23.7-14.2-23.7-26.9c0-12.7,10.1-26.9,23.7-26.9c3.3,0,6.6,0.7,9.7,2.2c0.8,0.4,1.7,0.3,2.4-0.1
			c0.7-0.4,1.2-1.2,1.3-2c1.3-12.3,11.4-21.6,23.5-21.6c11.3,0,21,8.2,23.3,19.4c0.3,1.3,1.3,2.1,2.7,2.2c0.2,0,0.4,0,0.4-0.1
			c13.6,0,23.7,14.2,23.7,26.9C147.5,140.9,137.3,155.1,123.7,155.1z M149.6,114.3c-4.6-10.1-14-17.6-24.3-18.3
			c-2.3-8.3-8.1-15-15.5-18.6c1.7-7.9,8.5-13.7,16.6-13.7c8.1,0,15.2,5.9,16.8,14c0.2,1.3,1.7,2,3,2.1c9.4,0,17.1,7.8,17.1,17.5
			C163.3,105.5,157.5,112.6,149.6,114.3z"/>
	</g>
</g>
</svg>
