<?xml version="1.0" encoding="UTF-8" standalone="no"?>
<svg width="1427px" height="266px" viewBox="0 0 1427 266" version="1.1" xmlns="http://www.w3.org/2000/svg" xmlns:xlink="http://www.w3.org/1999/xlink" xmlns:sketch="http://www.bohemiancoding.com/sketch/ns">
    <!-- Generator: Sketch 3.2.2 (9983) - http://www.bohemiancoding.com/sketch -->
    <title>Untitled</title>
    <desc>Created with Sketch.</desc>
    <defs></defs>
    <g id="Page-1" stroke="none" stroke-width="1" fill="none" fill-rule="evenodd" sketch:type="MSPage">
        <path d="M29.1202899,106.54918 C28.0949275,109.418033 29.3253623,112.491803 32.1963768,113.721311 C32.8115942,113.92623 33.6318841,114.131148 34.2471014,114.131148 C36.2978261,114.131148 38.3485507,112.901639 39.373913,110.647541 C50.6528986,81.1393443 78.3376812,62.0819672 109.508696,62.0819672 C112.584783,62.0819672 114.84058,59.6229508 114.84058,56.5491803 C114.84058,53.4754098 112.37971,51.0163934 109.508696,51.0163934 C73.826087,51.0163934 42.2449275,72.942623 29.1202899,106.54918 L29.1202899,106.54918 Z" id="Shape" stroke="#979797" stroke-width="5" fill="#FFFFFF" sketch:type="MSShapeGroup"></path>
        <path d="M10.4586957,80.7295082 C11.073913,80.9344262 11.8942029,81.1393443 12.5094203,81.1393443 C14.5601449,81.1393443 16.6108696,79.9098361 17.6362319,77.6557377 C29.1202899,48.147541 56.8050725,29.0901639 87.976087,29.0901639 C91.0521739,29.0901639 93.307971,26.6311475 93.307971,23.557377 C93.307971,20.4836066 90.8471014,18.0245902 87.976087,18.0245902 C52.2934783,18.0245902 20.7123188,39.7459016 7.58768116,73.557377 C6.35724638,76.4262295 7.79275362,79.5 10.4586957,80.7295082 L10.4586957,80.7295082 Z" id="Path" stroke="#979797" stroke-width="5" fill="#FFFFFF" sketch:type="MSShapeGroup"></path>
        <path d="M281.974638,136.467213 C281.974638,112.081967 263.518116,92 239.524638,89.9508197 C233.782609,70.4836066 215.941304,56.5491803 195.434058,56.5491803 C174.311594,56.5491803 156.265217,71.3032787 151.343478,91.795082 C146.421739,90.3606557 141.294928,89.5409836 135.963043,89.5409836 C108.073188,89.5409836 84.2847826,109.213115 78.3376812,136.467213 C72.3905797,134.622951 66.4434783,133.598361 60.2913043,133.598361 C28.7101449,133.598361 0.820289855,164.540984 0.820289855,199.786885 C0.820289855,235.032787 28.7101449,265.97541 60.2913043,265.97541 L190.102174,265.97541 C221.683333,265.97541 249.573188,235.032787 249.573188,199.786885 C249.573188,193.434426 248.752899,187.286885 247.112319,181.54918 C267.20942,176.42623 281.974638,157.983607 281.974638,136.467213 L281.974638,136.467213 Z" id="Path" stroke="#979797" stroke-width="5" fill="#FFFFFF" sketch:type="MSShapeGroup"></path>
        <path d="M190.102174,254.909836 L60.4963768,254.909836 C32.6065217,254.909836 11.8942029,225.811475 11.8942029,199.786885 C11.8942029,173.762295 32.6065217,144.663934 60.4963768,144.663934 C67.2637681,144.663934 74.0311594,146.098361 80.3884058,149.172131 C82.0289855,149.991803 83.8746377,149.786885 85.3101449,148.967213 C86.7456522,148.147541 87.7710145,146.508197 87.976087,144.868852 C90.642029,119.663934 111.354348,100.606557 136.168116,100.606557 C159.341304,100.606557 179.233333,117.409836 183.95,140.360656 C184.565217,143.02459 186.615942,144.663934 189.486957,144.868852 C189.897101,144.868852 190.307246,144.868852 190.307246,144.663934 C218.197101,144.663934 238.90942,173.762295 238.90942,199.786885 C238.90942,225.811475 217.992029,254.909836 190.102174,254.909836 L190.102174,254.909836 Z" id="Path" stroke="#979797" stroke-width="5" fill="#FFFFFF" sketch:type="MSShapeGroup"></path>
        <path d="M243.215942,171.303279 C233.782609,150.606557 214.505797,135.237705 193.383333,133.803279 C188.666667,116.795082 176.772464,103.065574 161.597101,95.6885246 C165.083333,79.5 179.028261,67.6147541 195.63913,67.6147541 C212.25,67.6147541 226.810145,79.704918 230.091304,96.3032787 C230.501449,98.9672131 233.577536,100.401639 236.243478,100.606557 C255.52029,100.606557 271.31087,116.590164 271.31087,136.467213 C271.31087,153.270492 259.416667,167.819672 243.215942,171.303279 L243.215942,171.303279 Z" id="Path" stroke="#979797" stroke-width="5" fill="#FFFFFF" sketch:type="MSShapeGroup"></path>
        <g id="Group" sketch:type="MSLayerGroup" transform="translate(35.000000, 145.000000)">
            <path d="M87.421839,54.0809955 L92.2667075,54.0809955 C92.8290583,52.9319759 94.0402755,49.8384615 94.9919461,47.1868778 L95.1649771,46.6565611 L99.5772681,44.8446456 L100.053103,45.0656109 C102.691826,46.2146305 105.806385,47.4962293 107.017602,47.8939668 L110.434965,44.4911011 C110.002387,43.2536953 108.704654,40.2485671 107.493437,37.7295626 L107.233891,37.1992459 L109.050716,32.7357466 L109.569809,32.5589744 C112.25179,31.4983409 115.323091,30.2167421 116.447792,29.6422323 L116.447792,24.7809955 C115.279833,24.2064857 112.208532,23.013273 109.569809,22.0852187 L109.050716,21.9084465 L107.190633,17.4449472 L107.406922,16.9588235 C108.531623,14.3514329 109.786098,11.2579186 110.218676,10.0205128 L106.801313,6.61764706 C105.676612,7.01538462 102.605311,8.38536953 100.009846,9.5785822 L99.5340103,9.79954751 L95.1217194,7.98763198 L94.9054306,7.5015083 C93.8672445,4.84992459 92.5695118,1.75641026 91.9639032,0.607390649 L87.1622925,0.607390649 C86.5999417,1.71221719 85.3887245,4.76153846 84.4370539,7.41312217 L84.2640229,7.94343891 L79.8517319,9.75535445 L79.3758966,9.53438914 C76.7371736,8.38536953 73.6226152,7.10377074 72.4113981,6.75022624 L68.9940355,10.153092 C69.426613,11.3904977 70.7243456,14.3956259 71.9355628,16.9146305 L72.1951093,17.4449472 L70.3782836,21.9084465 L69.8159328,22.0852187 C67.1772097,23.1458522 64.0626514,24.427451 62.9379498,25.0019608 L62.9379498,29.8190045 C64.1059092,30.3935143 67.1772097,31.586727 69.8159328,32.5589744 L70.3350258,32.7357466 L72.1951093,37.1992459 L71.9788205,37.6853695 C70.8541189,40.2927602 69.599644,43.3862745 69.1670665,44.6236802 L72.5844291,48.0707391 C73.665873,47.6730015 76.7804313,46.3030166 79.3758966,45.1098039 L79.8517319,44.8888386 L84.2640229,46.7007541 L84.4803117,47.1868778 C85.5184978,49.8384615 86.8162304,52.9319759 87.421839,54.0809955 Z M89.7145,37.5527903 C84.0909919,37.5527903 79.4624121,32.9567119 79.4624121,27.3 C79.4624121,21.6432881 84.0477341,17.0472097 89.7145,17.0472097 C95.3380081,17.0472097 99.9233301,21.6432881 99.9233301,27.3 C99.9233301,32.9567119 95.3380081,37.5527903 89.7145,37.5527903 L89.7145,37.5527903 Z M89.7145,19.6104072 C85.4319823,19.6104072 81.9713619,23.0574661 81.9713619,27.3 C81.9713619,31.5425339 85.4319823,35.0337858 89.7145,35.0337858 C93.9970177,35.0337858 97.4576381,31.586727 97.4576381,27.3 C97.4576381,23.0574661 93.9970177,19.6104072 89.7145,19.6104072 L89.7145,19.6104072 Z" id="Pink" fill="#E2007E" sketch:type="MSShapeGroup"></path>
            <path d="M98.5296125,107.28624 L103.327413,107.28624 C103.8843,106.149867 105.08375,103.0904 106.026175,100.468 L106.197525,99.94352 L110.56695,98.1515467 L111.038162,98.37008 C113.65125,99.5064533 116.73555,100.773947 117.935,101.167307 L121.319163,97.8018933 C120.890788,96.5781067 119.605663,93.6060533 118.406213,91.1147733 L118.149188,90.5902933 L119.948363,86.17592 L120.462412,86.0010933 C123.118337,84.9521333 126.1598,83.68464 127.273575,83.1164533 L127.273575,78.30872 C126.116962,77.7405333 123.0755,76.5604533 120.462412,75.6426133 L119.948363,75.4677867 L118.10635,71.0534133 L118.320538,70.57264 C119.434312,67.9939467 120.6766,64.93448 121.104975,63.7106933 L117.720812,60.34528 C116.607037,60.73864 113.565575,62.0935467 110.995325,63.2736267 L110.524113,63.49216 L106.154687,61.7001867 L105.9405,61.2194133 C104.9124,58.5970133 103.627275,55.5375467 103.02755,54.4011733 L98.2725875,54.4011733 C97.7157,55.49384 96.51625,58.5096 95.573825,61.132 L95.402475,61.65648 L91.03305,63.4484533 L90.5618375,63.22992 C87.94875,62.0935467 84.86445,60.8260533 83.665,60.4764 L80.2808375,63.8418133 C80.7092125,65.0656 81.9943375,68.0376533 83.1937875,70.5289333 L83.4508125,71.0534133 L81.6516375,75.4677867 L81.09475,75.6426133 C78.4816625,76.6915733 75.3973625,77.9590667 74.2835875,78.5272533 L74.2835875,83.29128 C75.4402,83.8594667 78.4816625,85.0395467 81.09475,86.0010933 L81.6088,86.17592 L83.4508125,90.5902933 L83.236625,91.0710667 C82.12285,93.64976 80.8805625,96.7092267 80.4521875,97.9330133 L83.83635,101.342133 C84.9072875,100.948773 87.9915875,99.5938667 90.5618375,98.4137867 L91.03305,98.1952533 L95.402475,99.9872267 L95.6166625,100.468 C96.6447625,103.0904 97.9298875,106.149867 98.5296125,107.28624 Z M100.8,90.9399467 C95.231125,90.9399467 90.6475125,86.3944533 90.6475125,80.8 C90.6475125,75.2055467 95.1882875,70.6600533 100.8,70.6600533 C106.368875,70.6600533 110.90965,75.2055467 110.90965,80.8 C110.90965,86.3944533 106.368875,90.9399467 100.8,90.9399467 L100.8,90.9399467 Z M100.8,73.19504 C96.5590875,73.19504 93.1320875,76.60416 93.1320875,80.8 C93.1320875,84.99584 96.5590875,88.4486667 100.8,88.4486667 C105.040913,88.4486667 108.467913,85.0395467 108.467913,80.8 C108.467913,76.60416 105.040913,73.19504 100.8,73.19504 L100.8,73.19504 Z" id="Yellow" fill="#D3CE00" sketch:type="MSShapeGroup"></path>
            <path d="M28.2960606,65.6301681 L33.2260458,65.6301681 C33.7982762,64.4624863 35.0307725,61.3187276 35.9991625,58.6240773 L36.1752334,58.0851473 L40.6650414,56.2438029 L41.1492363,56.4683571 C43.8343176,57.6360389 47.0035938,58.9384532 48.2360901,59.3426508 L51.7134904,55.8845162 C51.2733131,54.6270127 49.9527814,51.5730757 48.7202851,49.0131579 L48.4561787,48.4742278 L50.3049232,43.9382331 L50.8331359,43.7585898 C53.5622349,42.6807297 56.6874934,41.3783153 57.8319542,40.7944744 L57.8319542,35.8542822 C56.6434756,35.2704413 53.5182171,34.0578487 50.8331359,33.1147211 L50.3049232,32.9350777 L48.412161,28.399083 L48.6322496,27.9050638 C49.7767105,25.2553243 51.0532245,22.1115656 51.4934018,20.8540621 L48.0160015,17.3959276 C46.8715406,17.8001251 43.7462821,19.1923611 41.1052186,20.4049538 L40.6210236,20.6295079 L36.1312157,18.7881636 L35.911127,18.2941443 C34.8547016,15.599494 33.5341699,12.4557353 32.9179217,11.2880535 L28.0319542,11.2880535 C27.4597238,12.4108245 26.2272275,15.5096724 25.2588375,18.2043227 L25.0827666,18.7432527 L20.5929586,20.5845971 L20.1087637,20.3600429 C17.4236824,19.1923611 14.2544062,17.8899468 13.0219099,17.5306601 L9.5445096,20.9887947 C9.98468685,22.2462981 11.3052186,25.3002352 12.5377149,27.8601529 L12.8018213,28.399083 L10.9530768,32.9350777 L10.3808464,33.1147211 C7.69576514,34.1925812 4.52648892,35.4949955 3.38202806,36.0788364 L3.38202806,40.9741178 C4.57050665,41.5579587 7.69576514,42.7705513 10.3808464,43.7585898 L10.9090591,43.9382331 L12.8018213,48.4742278 L12.5817326,48.9682471 C11.4372718,51.6179865 10.1607578,54.7617452 9.7205805,56.0192487 L13.1979808,59.5222941 C14.2984239,59.1180966 17.4677001,57.7258606 20.1087637,56.5132679 L20.5929586,56.2887137 L25.0827666,58.1300581 L25.3028552,58.6240773 C26.3592806,61.3187276 27.6798124,64.4624863 28.2960606,65.6301681 Z M30.629,48.8335145 C24.9066957,48.8335145 20.1967991,44.1627873 20.1967991,38.4142 C20.1967991,32.6656127 24.862678,27.9948855 30.629,27.9948855 C36.3513043,27.9948855 41.0171832,32.6656127 41.0171832,38.4142 C41.0171832,44.1627873 36.3513043,48.8335145 30.629,48.8335145 M30.629,30.5997141 C26.2712452,30.5997141 22.7498272,34.1027595 22.7498272,38.4142 C22.7498272,42.7256405 26.2712452,46.2735967 30.629,46.2735967 C34.9867548,46.2735967 38.5081728,42.7705513 38.5081728,38.4142 C38.5081728,34.1027595 34.9867548,30.5997141 30.629,30.5997141" id="Blue" fill="#00B2EC" sketch:type="MSShapeGroup"></path>
            <path d="M146.467061,77.3374501 L151.397046,77.3374501 C151.969276,76.2427484 153.201773,73.2954747 154.170162,70.76924 L154.346233,70.2639931 L158.836041,68.5377327 L159.320236,68.7482523 C162.005318,69.842954 165.174594,71.0639674 166.40709,71.4429026 L169.88449,68.2009014 C169.444313,67.0219919 168.123781,64.158926 166.891285,61.759003 L166.627179,61.2537561 L168.475923,57.0012611 L169.004136,56.8328454 C171.733235,55.8223516 174.858493,54.6013381 176.002954,54.0539873 L176.002954,49.4225571 C174.814476,48.8752062 171.689217,47.7384006 169.004136,46.8542185 L168.475923,46.6858028 L166.583161,42.4333078 L166.80325,41.9701648 C167.94771,39.486034 169.224225,36.5387603 169.664402,35.3598508 L166.187001,32.1178496 C165.042541,32.4967848 161.917282,33.802006 159.276219,34.9388116 L158.792024,35.1493312 L154.302216,33.4230708 L154.082127,32.9599278 C153.025702,30.4336932 151.70517,27.4864194 151.088922,26.3917177 L146.202954,26.3917177 C145.630724,27.4443155 144.398227,30.3494853 143.429838,32.87572 L143.253767,33.3809669 L138.763959,35.1072273 L138.279764,34.8967077 C135.594682,33.802006 132.425406,32.5809926 131.19291,32.2441613 L127.71551,35.4861625 C128.155687,36.665072 129.476219,39.528138 130.708715,41.9280609 L130.972821,42.4333078 L129.124077,46.6858028 L128.551846,46.8542185 C125.866765,47.8647124 122.697489,49.0857258 121.553028,49.6330766 L121.553028,54.2224029 C122.741507,54.7697538 125.866765,55.9065594 128.551846,56.8328454 L129.080059,57.0012611 L130.972821,61.2537561 L130.752733,61.7168991 C129.608272,64.2010299 128.331758,67.1483036 127.891581,68.3272132 L131.368981,71.6113182 C132.469424,71.232383 135.6387,69.9271618 138.279764,68.7903562 L138.763959,68.5798366 L143.253767,70.306097 L143.473855,70.76924 C144.530281,73.2954747 145.850812,76.2427484 146.467061,77.3374501 Z M148.8,61.5905874 C143.077696,61.5905874 138.367799,57.2117806 138.367799,51.82248 C138.367799,46.4331794 143.033678,42.0543726 148.8,42.0543726 C154.522304,42.0543726 159.188183,46.4331794 159.188183,51.82248 C159.188183,57.2117806 154.522304,61.5905874 148.8,61.5905874 L148.8,61.5905874 Z M148.8,44.4963995 C144.442245,44.4963995 140.920827,47.7805045 140.920827,51.82248 C140.920827,55.8644555 144.442245,59.1906644 148.8,59.1906644 C153.157755,59.1906644 156.679173,55.9065594 156.679173,51.82248 C156.679173,47.7805045 153.157755,44.4963995 148.8,44.4963995 L148.8,44.4963995 Z" id="black" fill="#656D78" sketch:type="MSShapeGroup"></path>
        </g>
        <text id="HolyPaas-for-Enterpr" sketch:type="MSTextLayer" font-family="Microsoft YaHei" font-size="100" font-weight="normal" letter-spacing="-1.80000031">
            <tspan x="331" y="173" fill="#00B2EC">H</tspan>
            <tspan x="406.54375" y="173" fill="#FFFFFF">oly</tspan>
            <tspan x="544.258983" y="173" fill="#D3CE00">P</tspan>
            <tspan x="600.173827" y="173" fill="#FFFFFF">aas for </tspan>
            <tspan x="938.21523" y="173" fill="#E2007E">E</tspan>
            <tspan x="991.395699" y="173" fill="#FFFFFF">nterprise</tspan>
        </text>
    </g>
</svg>